<?xml version="1.0" standalone="no"?><!DOCTYPE svg PUBLIC "-//W3C//DTD SVG 1.1//EN" "http://www.w3.org/Graphics/SVG/1.1/DTD/svg11.dtd" [<!ENTITY nbsp " ">]><svg data-noselect="" viewBox="32.32619584801 28.201927680069275 714.73382785049 536.0503708878674" width="714.73382785049" ref="svg_canvas" height="536.0503708878674" preserveAspectRatio="none" version="1.1" xmlns="http://www.w3.org/2000/svg" style="background: #ffffff;">
    <def></def>
    <g id="shape_Ct2Nn49Yyp" ref="shape_Ct2Nn49Yyp" key="shape_Ct2Nn49Yyp" transform="translate(112.32619584801,183.08951871989) rotate(-90,43.359467232825,37.611219227548) scale(1,1)" style="cursor:move;display:inline;opacity:1;" filter="">
            <g style="display:inline"><rect fill="rgba(0,0,0,0)" width="106.71893446564995" height="95.2224384550962" x="-10" y="-10"></rect><svg version="1.1" xmlns="http://www.w3.org/2000/svg" xmlns:xlink="http://www.w3.org/1999/xlink" x="0px" y="0px" width="86.71893446564995" height="75.2224384550962" viewBox="0 0 100 86" enable-background="new 0 0 100 86" xml:space="preserve" shapetype="equilateral triangle" class="style-removed" preserveAspectRatio="none" data-parent="shape_Ct2Nn49Yyp">
	 <linearGradient class="linearGradient" x1="0%" y1="0%" x2="0%" y2="100%" gradientTransform="translate(0.5,0.5) rotate(0) translate(-0.5,-0.5)">
		<stop id="stop1_C86uNKVx1S" offset="0%" class="linearGradientColor1" stop-color="#05a"></stop>
		<stop id="stop2_fYzwXR56rn" offset="100%" class="linearGradientColor2" stop-color="#0a5"></stop>
	</linearGradient>

	<radialGradient class="radialGradient" cx="50%" cy="50%" r="50%" fx="50%" fy="50%">
		<stop offset="0%" class="radialGradientColor1" stop-color="#05a"></stop>
		<stop offset="100%" class="radialGradientColor2" stop-color="#0a5"></stop>
	</radialGradient>
	<clipPath id="f_eq_triangle_XZ1S3eFp3Q" class="clipPath">
		<polygon fill="none" class="element" stroke="#dddddd" stroke-width="1" stroke-miterlimit="10" points="50,0 0,86 100,86" data-ignorecolor=""></polygon>
	</clipPath>
	<polygon class="fill-color element" fill="rgb(39, 167, 224)" opacity="1" points="50,1 1,85 99,85" clip-path="url(#f_eq_triangle_XZ1S3eFp3Q)"></polygon>
	<polygon class="stroke-color element" fill="none" stroke="#dddddd" stroke-width="0" stroke-miterlimit="10" points="50,0 0,86 100,86" clip-path="url(#f_eq_triangle_XZ1S3eFp3Q)"></polygon>
</svg></g>
        </g><g id="shape_y1BKSX1yeC" ref="shape_y1BKSX1yeC" key="shape_y1BKSX1yeC" transform="translate(187.23183033638,334.14226907302) rotate(90,43.359467232825,37.611219227548) scale(1,1)" style="cursor:move;display:inline;opacity:1;" filter="">
            <g style="display:inline"><rect fill="rgba(0,0,0,0)" width="106.71893446564995" height="95.2224384550962" x="-10" y="-10"></rect><svg version="1.1" xmlns="http://www.w3.org/2000/svg" xmlns:xlink="http://www.w3.org/1999/xlink" x="0px" y="0px" width="86.71893446564995" height="75.2224384550962" viewBox="0 0 100 86" enable-background="new 0 0 100 86" xml:space="preserve" shapetype="equilateral triangle" class="style-removed" preserveAspectRatio="none" data-parent="shape_y1BKSX1yeC">
	 <linearGradient class="linearGradient" x1="0%" y1="0%" x2="0%" y2="100%" gradientTransform="translate(0.5,0.5) rotate(0) translate(-0.5,-0.5)">
		<stop id="stop1_C86uNKVx1S" offset="0%" class="linearGradientColor1" stop-color="#05a"></stop>
		<stop id="stop2_fYzwXR56rn" offset="100%" class="linearGradientColor2" stop-color="#0a5"></stop>
	</linearGradient>

	<radialGradient class="radialGradient" cx="50%" cy="50%" r="50%" fx="50%" fy="50%">
		<stop offset="0%" class="radialGradientColor1" stop-color="#05a"></stop>
		<stop offset="100%" class="radialGradientColor2" stop-color="#0a5"></stop>
	</radialGradient>
	<clipPath id="f_eq_triangle_XZ1S3eFp3Q" class="clipPath">
		<polygon fill="none" class="element" stroke="#dddddd" stroke-width="1" stroke-miterlimit="10" points="50,0 0,86 100,86" data-ignorecolor=""></polygon>
	</clipPath>
	<polygon class="fill-color element" fill="rgb(39, 167, 224)" opacity="1" points="50,1 1,85 99,85" clip-path="url(#f_eq_triangle_XZ1S3eFp3Q)"></polygon>
	<polygon class="stroke-color element" fill="none" stroke="#dddddd" stroke-width="0" stroke-miterlimit="10" points="50,0 0,86 100,86" clip-path="url(#f_eq_triangle_XZ1S3eFp3Q)"></polygon>
</svg></g>
        </g><g id="shape_keNyxhbKNP" ref="shape_keNyxhbKNP" key="shape_keNyxhbKNP" transform="translate(117.75763988656,221.30861139038) rotate(0,75.222438455096,75.222438455096) scale(1,1)" style="cursor:move;display:inline;opacity:1;" filter="">
            <g style="display:inline"><rect fill="rgba(0,0,0,0)" width="170.4448769101922" height="170.4448769101924" x="-10" y="-10"></rect><svg version="1.1" xmlns="http://www.w3.org/2000/svg" xmlns:xlink="http://www.w3.org/1999/xlink" x="0px" y="0px" shapetype="rect" width="150.4448769101922" height="150.4448769101924" viewBox="0 0 100 100" enable-background="new 0 0 100 100" xml:space="preserve" class="style-removed" preserveAspectRatio="none" data-parent="shape_keNyxhbKNP">

	<linearGradient class="linearGradient" x1="0%" y1="0%" x2="0%" y2="100%" gradientTransform="translate(0.5,0.5) rotate(0) translate(-0.5,-0.5)">
		<stop id="stop1_oSX6vLBsoT" offset="0%" class="linearGradientColor1" stop-color="#05a"></stop>
		<stop id="stop2_fhC9FQWHlU" offset="100%" class="linearGradientColor2" stop-color="#0a5"></stop>
	</linearGradient>

	<radialGradient class="radialGradient" cx="50%" cy="50%" r="50%" fx="50%" fy="50%">
		<stop offset="0%" class="radialGradientColor1" stop-color="#05a"></stop>
		<stop offset="100%" class="radialGradientColor2" stop-color="#0a5"></stop>
	</radialGradient>

	<clipPath id="f_rect_hxlAoV8yFU" class="clipPath">
		<rect fill="none" class="element" stroke="#dddddd" stroke-width="1" stroke-miterlimit="10" x="0" y="0" width="100" height="100" data-ignorecolor=""></rect>
	</clipPath>

	<rect class="fill-color element" fill="rgb(48, 49, 139)" opacity="1" x="0" y="0" width="100" height="100"></rect>
	<rect class="stroke-color element" fill="none" stroke="#dddddd" stroke-width="0" stroke-miterlimit="10" x="0" y="0" width="100" height="100" clip-path="url(#f_rect_hxlAoV8yFU)"></rect>
</svg></g>
        </g><g id="shape_xBgRQaO9Ef" ref="shape_xBgRQaO9Ef" key="shape_xBgRQaO9Ef" transform="translate(181.0700236985,-97.79231316203996) rotate(0,346.67802792462,388.436756800367) scale(1,1)" style="cursor:move;display:inline;opacity:1;" filter="">
            <g style="display:inline"><svg xmlns="http://www.w3.org/2000/svg" version="1.1" xmlns:xlink="http://www.w3.org/1999/xlink" width="809.96" height="776.9399999999999" viewBox="0 0 809.96 776.9399999999999" preserveAspectRatio="none" data-parent="shape_xBgRQaO9Ef"><rect fill="rgba(0,0,0,0)" width="378" height="129" x="107.99" y="323.96999999999997"></rect><g data-width="377.42505" transform="translate(107.99, 0)"><path d="M22.68 0L7.34 0L7.34-72.03L22.68-72.03L22.68 0Z" transform="translate(0 426.96999999999997) " fill="rgb(48, 49, 139)" stroke="rgb(48, 49, 139)" stroke-width="0.18" data-glyph-w="29.913230000000002" data-glyph-h="107.99000000000001" data-glyph-ascender="92.76341000000001" data-glyph-descender="-15.22659"></path><path d="M7.02-72.03L29.37-72.03L47.30-15.77L66.20-72.03L88.55-72.03L88.55 0L73.97 0L73.97-54.00L55.18 0L39.42 0L21.60-54.00L21.60 0L7.02 0L7.02-72.03Z" transform="translate(29.913230000000002 426.96999999999997) " fill="rgb(48, 49, 139)" stroke="rgb(48, 49, 139)" stroke-width="0.18" data-glyph-w="96.00311" data-glyph-h="107.99000000000001" data-glyph-ascender="92.76341000000001" data-glyph-descender="-15.22659"></path><path d="M38.98-72.46L38.98-72.46Q49.78-72.46 57.99-68.79L57.99-68.79Q67.60-64.36 71.49-54.00L71.49-54.00Q74.51-45.90 74.51-34.99L74.51-34.99Q74.51-23.97 70.84-15.87L70.84-15.87Q66.20-6.26 56.59-2.38L56.59-2.38Q49.46 0.43 40.17 0.43L40.17 0.43Q27.97 0.43 19.01-4.10L19.01-4.10Q11.45-7.88 7.45-15.98Q3.46-24.08 3.46-35.64L3.46-35.64Q3.46-56.26 13.71-65.01L13.71-65.01Q22.35-72.35 38.98-72.46ZM39.09-60.37L39.09-60.37Q28.51-60.37 23.97-53.46L23.97-53.46Q20.30-48.06 20.30-36.07L20.30-36.07Q20.30-23.43 24.84-17.49L24.84-17.49Q29.37-11.66 39.20-11.66L39.20-11.66Q48.70-11.66 53.19-17.60Q57.67-23.54 57.67-35.96L57.67-35.96Q57.67-47.30 54.00-53.24L54.00-53.24Q49.78-60.26 39.09-60.37Z" transform="translate(125.91634 426.96999999999997) " fill="rgb(48, 49, 139)" stroke="rgb(48, 49, 139)" stroke-width="0.18" data-glyph-w="77.96878" data-glyph-h="107.99000000000001" data-glyph-ascender="92.76341000000001" data-glyph-descender="-15.22659"></path><path d="M60.04-72.03L77.32-72.03L45.79 0L30.45 0L0.11-72.03L17.39-72.03L38.55-17.82L60.04-72.03Z" transform="translate(203.88512 426.96999999999997) " fill="rgb(48, 49, 139)" stroke="rgb(48, 49, 139)" stroke-width="0.18" data-glyph-w="77.53682" data-glyph-h="107.99000000000001" data-glyph-ascender="92.76341000000001" data-glyph-descender="-15.22659"></path><path d="M22.68 0L7.34 0L7.34-72.03L22.68-72.03L22.68 0Z" transform="translate(281.42194 426.96999999999997) " fill="rgb(48, 49, 139)" stroke="rgb(48, 49, 139)" stroke-width="0.18" data-glyph-w="29.913230000000002" data-glyph-h="107.99000000000001" data-glyph-ascender="92.76341000000001" data-glyph-descender="-15.22659"></path><path d="M35.53-72.03L61.34-72.03L61.34-59.18L41.36-59.18Q33.58-59.18 30.02-58.10Q26.46-57.02 24.08-53.89L24.08-53.89Q22.46-51.73 21.87-49.57Q21.27-47.41 20.84-42.22L20.84-42.22L61.34-42.22L61.34-29.37L20.84-29.37Q21.71-20.09 26.35-16.47Q30.99-12.85 42.12-12.85L42.12-12.85L61.34-12.85L61.34 0L41.36 0Q33.26 0 27.11-0.97L27.11-0.97Q17.39-2.59 11.66-9.50L11.66-9.50Q3.46-19.44 3.46-36.39L3.46-36.39Q3.46-55.18 15.01-65.66L15.01-65.66Q19.01-69.22 23.49-70.63Q27.97-72.03 35.53-72.03L35.53-72.03Z" transform="translate(311.33517 426.96999999999997) " fill="rgb(48, 49, 139)" stroke="rgb(48, 49, 139)" stroke-width="0.18" data-glyph-w="66.08988000000001" data-glyph-h="107.99000000000001" data-glyph-ascender="92.76341000000001" data-glyph-descender="-15.22659"></path></g></svg></g>
        </g><g id="shape_dhwhOFLEH4" ref="shape_dhwhOFLEH4" key="shape_dhwhOFLEH4" transform="translate(10.660078341664985,-262.24895015452) rotate(0,218.074212233614,558.78) scale(1,1)" style="cursor:move;display:inline;opacity:1;" filter="">
            <g style="display:inline"><svg xmlns="http://www.w3.org/2000/svg" version="1.1" xmlns:xlink="http://www.w3.org/1999/xlink" width="668.28" height="1117.56" viewBox="0 0 668.28 1117.56" preserveAspectRatio="none" data-parent="shape_dhwhOFLEH4"><rect fill="rgba(0,0,0,0)" width="57" height="183" x="152.82" y="467.28"></rect><g data-width="56.39057999999999" transform="translate(153.12471, 0)"><path d="M13.45-95.67L48.75-95.67L35.45-9.17L7.64-9.17L17.88-89.86L13.45-95.67Z" transform="translate(0 611.28) " fill="#FFFFFF" stroke="#FFFFFF" stroke-width="0.255" data-glyph-w="56.39057999999999" data-glyph-h="198.66599999999997" data-glyph-ascender="152.82" data-glyph-descender="-45.846"></path></g></svg></g>
        </g>
  </svg>